<mxfile host="Electron" modified="2024-07-24T21:40:26.626Z" agent="Mozilla/5.0 (Windows NT 10.0; Win64; x64) AppleWebKit/537.36 (KHTML, like Gecko) draw.io/24.2.5 Chrome/120.0.6099.109 Electron/28.1.0 Safari/537.36" etag="UNnH4wtM5t4duMvJJnNM" version="24.2.5" type="device">
  <diagram id="C5RBs43oDa-KdzZeNtuy" name="Page-1">
    <mxGraphModel dx="2117" dy="1798" grid="1" gridSize="10" guides="1" tooltips="1" connect="1" arrows="1" fold="1" page="1" pageScale="1" pageWidth="827" pageHeight="1169" math="0" shadow="0">
      <root>
        <mxCell id="WIyWlLk6GJQsqaUBKTNV-0" />
        <mxCell id="WIyWlLk6GJQsqaUBKTNV-1" parent="WIyWlLk6GJQsqaUBKTNV-0" />
        <mxCell id="C0KYWf5MFjcVJt7XxlhM-26" value="BasicConfiguration" style="rounded=0;whiteSpace=wrap;html=1;fillColor=#D4E1F5;container=0;" parent="WIyWlLk6GJQsqaUBKTNV-1" vertex="1">
          <mxGeometry x="480" y="90" width="140" height="60" as="geometry" />
        </mxCell>
        <mxCell id="ZilCAwPeWC5lEz1yRkBf-4" style="edgeStyle=orthogonalEdgeStyle;rounded=0;orthogonalLoop=1;jettySize=auto;html=1;noEdgeStyle=1;orthogonal=1;" edge="1" parent="WIyWlLk6GJQsqaUBKTNV-1" source="ZilCAwPeWC5lEz1yRkBf-0" target="ZilCAwPeWC5lEz1yRkBf-1">
          <mxGeometry relative="1" as="geometry">
            <Array as="points">
              <mxPoint x="152" y="79.375" />
              <mxPoint x="190" y="61.875" />
              <mxPoint x="430" y="61.875" />
              <mxPoint x="468" y="17.5" />
            </Array>
          </mxGeometry>
        </mxCell>
        <mxCell id="ZilCAwPeWC5lEz1yRkBf-5" style="edgeStyle=orthogonalEdgeStyle;rounded=0;orthogonalLoop=1;jettySize=auto;html=1;noEdgeStyle=1;orthogonal=1;" edge="1" parent="WIyWlLk6GJQsqaUBKTNV-1" source="ZilCAwPeWC5lEz1yRkBf-0" target="ZilCAwPeWC5lEz1yRkBf-3">
          <mxGeometry relative="1" as="geometry">
            <Array as="points">
              <mxPoint x="152" y="104.375" />
              <mxPoint x="228" y="121.875" />
            </Array>
          </mxGeometry>
        </mxCell>
        <mxCell id="ZilCAwPeWC5lEz1yRkBf-0" value="RsuTimController" style="rounded=0;whiteSpace=wrap;html=1;fillColor=#D4E1F5;container=0;" vertex="1" parent="WIyWlLk6GJQsqaUBKTNV-1">
          <mxGeometry y="61.875" width="140" height="60" as="geometry" />
        </mxCell>
        <mxCell id="ZilCAwPeWC5lEz1yRkBf-1" value="RsuTim" style="rounded=0;whiteSpace=wrap;html=1;fillColor=#D4E1F5;container=0;" vertex="1" parent="WIyWlLk6GJQsqaUBKTNV-1">
          <mxGeometry x="480" width="140" height="60" as="geometry" />
        </mxCell>
        <mxCell id="ZilCAwPeWC5lEz1yRkBf-2" value="ProcessFactory" style="rounded=0;whiteSpace=wrap;html=1;fillColor=#D4E1F5;container=0;" vertex="1" parent="WIyWlLk6GJQsqaUBKTNV-1">
          <mxGeometry x="480" y="180" width="140" height="60" as="geometry" />
        </mxCell>
        <mxCell id="ZilCAwPeWC5lEz1yRkBf-6" style="edgeStyle=orthogonalEdgeStyle;rounded=0;orthogonalLoop=1;jettySize=auto;html=1;noEdgeStyle=1;orthogonal=1;" edge="1" parent="WIyWlLk6GJQsqaUBKTNV-1" source="ZilCAwPeWC5lEz1yRkBf-3" target="C0KYWf5MFjcVJt7XxlhM-26">
          <mxGeometry relative="1" as="geometry">
            <Array as="points">
              <mxPoint x="394" y="121.875" />
              <mxPoint x="468" y="120" />
            </Array>
          </mxGeometry>
        </mxCell>
        <mxCell id="ZilCAwPeWC5lEz1yRkBf-7" style="edgeStyle=orthogonalEdgeStyle;rounded=0;orthogonalLoop=1;jettySize=auto;html=1;noEdgeStyle=1;orthogonal=1;" edge="1" parent="WIyWlLk6GJQsqaUBKTNV-1" source="ZilCAwPeWC5lEz1yRkBf-3" target="ZilCAwPeWC5lEz1yRkBf-1">
          <mxGeometry relative="1" as="geometry">
            <Array as="points">
              <mxPoint x="392" y="105.20833333333333" />
              <mxPoint x="468" y="42.5" />
            </Array>
          </mxGeometry>
        </mxCell>
        <mxCell id="ZilCAwPeWC5lEz1yRkBf-8" style="edgeStyle=orthogonalEdgeStyle;rounded=0;orthogonalLoop=1;jettySize=auto;html=1;noEdgeStyle=1;orthogonal=1;" edge="1" parent="WIyWlLk6GJQsqaUBKTNV-1" source="ZilCAwPeWC5lEz1yRkBf-3" target="ZilCAwPeWC5lEz1yRkBf-2">
          <mxGeometry relative="1" as="geometry">
            <Array as="points">
              <mxPoint x="392" y="138.54166666666666" />
              <mxPoint x="468" y="210" />
            </Array>
          </mxGeometry>
        </mxCell>
        <mxCell id="ZilCAwPeWC5lEz1yRkBf-3" value="RsuService" style="rounded=0;whiteSpace=wrap;html=1;fillColor=#D4E1F5;container=0;" vertex="1" parent="WIyWlLk6GJQsqaUBKTNV-1">
          <mxGeometry x="240" y="91.875" width="140" height="60" as="geometry" />
        </mxCell>
        <mxCell id="ZilCAwPeWC5lEz1yRkBf-9" value="rsu-data-controller" style="swimlane;whiteSpace=wrap;html=1;" vertex="1" parent="WIyWlLk6GJQsqaUBKTNV-1">
          <mxGeometry x="-30" y="-50" width="680" height="330" as="geometry" />
        </mxCell>
      </root>
    </mxGraphModel>
  </diagram>
</mxfile>
